<svg width="19" height="19" fill="none" xmlns="http://www.w3.org/2000/svg"><path fill-rule="evenodd" clip-rule="evenodd" d="M18.577 5.88c-.042-.96-.197-1.62-.42-2.19a4.407 4.407 0 00-1.043-1.602 4.443 4.443 0 00-1.598-1.04c-.575-.223-1.231-.378-2.19-.42C12.359.582 12.052.57 9.6.57S6.842.58 5.879.623c-.96.042-1.62.198-2.19.42a4.42 4.42 0 00-1.602 1.044 4.445 4.445 0 00-1.04 1.598c-.223.575-.378 1.23-.42 2.19C.582 6.843.57 7.15.57 9.601s.01 2.758.053 3.721c.042.96.198 1.619.42 2.19a4.46 4.46 0 001.044 1.602c.451.458.998.814 1.598 1.04.575.222 1.23.378 2.19.42.963.042 1.27.053 3.721.053 2.452 0 2.759-.01 3.722-.053.959-.042 1.618-.198 2.19-.42a4.618 4.618 0 002.642-2.642c.222-.575.377-1.23.42-2.19.042-.963.052-1.27.052-3.721 0-2.452-.003-2.758-.046-3.721zm-1.626 7.371c-.038.882-.186 1.358-.31 1.676a2.995 2.995 0 01-1.714 1.714c-.318.124-.797.272-1.676.31-.952.043-1.237.053-3.647.053-2.409 0-2.698-.01-3.647-.053-.882-.038-1.358-.186-1.675-.31a2.779 2.779 0 01-1.037-.674c-.3-.292-.53-.645-.674-1.037-.123-.317-.271-.797-.31-1.675-.043-.952-.053-1.238-.053-3.647 0-2.41.01-2.698.053-3.647.039-.882.187-1.358.31-1.676.145-.391.374-.747.677-1.037a2.8 2.8 0 011.037-.673c.318-.124.798-.272 1.676-.31.952-.043 1.238-.054 3.647-.054 2.412 0 2.698.011 3.647.053.882.04 1.358.187 1.675.31.392.145.748.375 1.037.674.3.293.53.646.674 1.037.124.318.272.797.31 1.676.043.952.053 1.238.053 3.647s-.01 2.691-.053 3.643zm-7.35-8.289a4.64 4.64 0 000 9.277 4.64 4.64 0 000-9.277zm0 7.647a3.01 3.01 0 110-6.018 3.01 3.01 0 010 6.018zm4.822-6.747a1.083 1.083 0 100-2.166 1.083 1.083 0 000 2.166z" fill="currentColor"/></svg>