<svg width="35" height="21" fill="none" xmlns="http://www.w3.org/2000/svg"><path d="M34.815 18.55a2.394 2.394 0 00-.12-.228c-.606-1.094-1.767-2.436-3.48-4.028l-.036-.036-.018-.018-.018-.018h-.019c-.777-.742-1.27-1.24-1.476-1.495-.377-.486-.461-.978-.255-1.476.145-.377.693-1.172 1.64-2.387.498-.644.893-1.16 1.184-1.549 2.102-2.794 3.013-4.58 2.734-5.358l-.109-.181c-.073-.11-.261-.21-.564-.301-.304-.091-.693-.106-1.167-.046l-5.248.037c-.085-.03-.206-.028-.365.009l-.237.055-.091.045-.073.055a.81.81 0 00-.2.191 1.25 1.25 0 00-.182.32 29.758 29.758 0 01-1.95 4.1c-.45.753-.862 1.406-1.24 1.958-.376.553-.692.96-.947 1.221a6.71 6.71 0 01-.692.629c-.207.158-.365.225-.474.2a9.073 9.073 0 01-.31-.073 1.212 1.212 0 01-.41-.446 2 2 0 01-.21-.71 7.843 7.843 0 01-.063-.739c-.006-.206-.003-.498.01-.875.012-.376.017-.631.017-.765 0-.462.01-.963.027-1.503l.046-1.285c.013-.316.018-.65.018-1.002 0-.353-.021-.629-.064-.83a2.832 2.832 0 00-.19-.583.982.982 0 00-.374-.437 2.105 2.105 0 00-.61-.246c-.644-.146-1.464-.225-2.46-.237-2.26-.024-3.712.122-4.356.438a2.454 2.454 0 00-.692.546c-.22.267-.25.413-.092.437.73.11 1.245.37 1.55.784l.109.219c.085.158.17.437.255.838.085.4.14.844.164 1.33.06.887.06 1.646 0 2.278a27.096 27.096 0 01-.173 1.476 2.957 2.957 0 01-.246.856c-.11.219-.183.353-.22.401a.315.315 0 01-.09.091c-.158.06-.322.092-.492.092-.17 0-.377-.085-.62-.256a4.373 4.373 0 01-.756-.701c-.261-.298-.556-.714-.884-1.249a21.78 21.78 0 01-1.02-1.895l-.292-.528c-.182-.34-.431-.836-.747-1.485A28.631 28.631 0 017.4 2.303a1.201 1.201 0 00-.438-.583l-.09-.055a1.26 1.26 0 00-.292-.154 1.934 1.934 0 00-.42-.119l-4.992.036c-.51 0-.857.116-1.04.347l-.072.11a.59.59 0 00-.055.29c0 .134.036.299.11.493a60.14 60.14 0 002.377 4.956c.857 1.592 1.601 2.874 2.233 3.845.631.972 1.275 1.89 1.931 2.752.656.863 1.09 1.415 1.303 1.658.213.243.38.425.501.547l.456.437c.292.292.72.641 1.285 1.048.565.407 1.19.808 1.877 1.203.686.395 1.485.716 2.396.965.911.25 1.798.35 2.66.302h2.096c.425-.037.747-.17.966-.401l.073-.092a1.21 1.21 0 00.136-.337 1.83 1.83 0 00.064-.5 6.001 6.001 0 01.118-1.413c.091-.419.195-.735.31-.947.116-.213.247-.392.392-.538.146-.145.25-.234.31-.264.061-.03.11-.051.146-.064.291-.097.635-.003 1.03.283a6.01 6.01 0 011.111 1.057c.347.42.763.89 1.249 1.412.486.522.91.91 1.275 1.166l.364.219c.244.146.56.28.949.401.388.121.728.152 1.02.091l4.665-.073c.461 0 .82-.076 1.075-.228.255-.151.407-.319.455-.5.05-.183.052-.39.01-.62a2.29 2.29 0 00-.128-.483z" fill="currentColor"/></svg>