<svg width="23" height="19" fill="none" xmlns="http://www.w3.org/2000/svg"><path d="M22.6 2.554a9.574 9.574 0 01-2.646.726 4.566 4.566 0 002.02-2.538 9.177 9.177 0 01-2.912 1.111 4.59 4.59 0 00-7.944 3.14c0 .364.031.714.107 1.047-3.818-.186-7.196-2.016-9.466-4.803a4.623 4.623 0 00-.628 2.321c0 1.59.819 3 2.04 3.817a4.535 4.535 0 01-2.075-.566v.05a4.613 4.613 0 003.679 4.513 4.583 4.583 0 01-1.204.15 4.06 4.06 0 01-.87-.078c.596 1.82 2.284 3.156 4.292 3.2a9.227 9.227 0 01-5.694 1.958c-.377 0-.738-.017-1.1-.063a12.928 12.928 0 007.046 2.06c8.45 0 13.07-7 13.07-13.067 0-.203-.007-.399-.017-.593A9.161 9.161 0 0022.6 2.554z" fill="currentColor"/></svg>