<svg width="29" height="24" fill="none" xmlns="http://www.w3.org/2000/svg"><path d="M13.254 21.438a1.64 1.64 0 11-3.281 0 1.64 1.64 0 013.28 0zm10.774 0a1.64 1.64 0 11-3.281 0 1.64 1.64 0 013.28 0zm-.555-2.626H10.446a2.373 2.373 0 01-2.34-1.957L6.108 5.764a1.34 1.34 0 011.318-1.575h18.211a2.38 2.38 0 012.324 2.887l-2.187 9.844a2.39 2.39 0 01-2.302 1.892zM7.787 5.83l1.93 10.735a.738.738 0 00.728.607h13.027a.733.733 0 00.721-.58l2.188-9.844a.737.737 0 00-.722-.897L7.788 5.83z" fill="currentColor"/><path d="M7.55 9.882a.82.82 0 01-.805-.662l-1.41-7.153a.273.273 0 00-.269-.219h-3.28a.82.82 0 010-1.64h3.28A1.92 1.92 0 016.942 1.75l1.411 7.153a.82.82 0 01-.804.979z" fill="currentColor"/></svg>