<?xml version="1.0" encoding="utf-8"?><svg viewBox="0 0 35 30" xmlns="http://www.w3.org/2000/svg" xmlns:xlink="http://www.w3.org/1999/xlink"><style>:root>svg{display:none}:root>svg:target{display:block}</style><svg fill="none" viewBox="0 0 21 14" id="icon-arrow-more" xmlns="http://www.w3.org/2000/svg"><path d="M20.83 6.166L14.834.17a.58.58 0 00-.824 0 .58.58 0 000 .824l5.003 5.003H.582A.58.58 0 000 6.58a.58.58 0 00.582.582h18.432l-5.003 5.002a.586.586 0 00.41.996.568.568 0 00.41-.172l5.994-5.994a.582.582 0 00.004-.828z" fill="currentColor"/></svg><svg fill="none" viewBox="0 0 18 30" id="icon-arrow-next" xmlns="http://www.w3.org/2000/svg"><path d="M16.76 14.177L2.882.339a1.163 1.163 0 00-1.642 1.647L14.291 15 1.241 28.014a1.163 1.163 0 101.642 1.646L16.76 15.823a1.162 1.162 0 000-1.646z" fill="currentColor"/></svg><svg fill="none" viewBox="0 0 18 30" id="icon-arrow-prev" xmlns="http://www.w3.org/2000/svg"><path d="M1.24 14.177L15.118.339a1.163 1.163 0 011.642 1.647L3.709 15l13.05 13.014a1.163 1.163 0 11-1.642 1.646L1.24 15.823a1.161 1.161 0 010-1.646z" fill="currentColor"/></svg><svg fill="none" viewBox="0 0 29 24" id="icon-basket" xmlns="http://www.w3.org/2000/svg"><path d="M13.254 21.438a1.64 1.64 0 11-3.281 0 1.64 1.64 0 013.28 0zM24.028 21.438a1.64 1.64 0 11-3.281 0 1.64 1.64 0 013.28 0zM23.473 18.812H10.446a2.373 2.373 0 01-2.34-1.957L6.108 5.764a1.34 1.34 0 011.318-1.575h18.211a2.38 2.38 0 012.324 2.887l-2.187 9.844a2.39 2.39 0 01-2.302 1.892zM7.787 5.83l1.93 10.735a.738.738 0 00.728.607h13.027a.733.733 0 00.721-.58l2.188-9.844a.737.737 0 00-.722-.897L7.788 5.83z" fill="currentColor"/><path d="M7.55 9.882a.82.82 0 01-.805-.662l-1.41-7.153a.273.273 0 00-.269-.219h-3.28a.82.82 0 010-1.64h3.28A1.92 1.92 0 016.942 1.75l1.411 7.153a.82.82 0 01-.804.979z" fill="currentColor"/></svg><svg fill="none" viewBox="0 0 10 5" id="icon-caret" xmlns="http://www.w3.org/2000/svg"><path d="M5 5L9.33.5H.67L5 5z" fill="#333"/></svg><svg fill="none" viewBox="0 0 10 5" id="icon-caret-accent" xmlns="http://www.w3.org/2000/svg"><path d="M5 5L9.33.5H.67L5 5z" fill="#9F2D22"/></svg><svg fill="none" viewBox="0 0 25 25" id="icon-close" xmlns="http://www.w3.org/2000/svg"><path d="M24.834 23.842a.691.691 0 00-.076-.075L13.48 12.48 24.765 1.203a.695.695 0 10-.983-.983L12.503 11.505 1.225.22a.695.695 0 10-.983.983l11.285 11.278L.242 23.76a.692.692 0 10.976.976l11.285-11.278 11.279 11.285a.692.692 0 001.052-.9z" fill="#333"/></svg><svg fill="none" viewBox="0 0 16 10" id="icon-dropdown" xmlns="http://www.w3.org/2000/svg"><path d="M7.56 9.138l-7.38-7.4a.62.62 0 01.88-.876L8 7.822l6.94-6.96a.62.62 0 11.879.876l-7.38 7.4a.62.62 0 01-.878 0z" fill="#C4C4C4"/><path d="M7.56 9.138l-7.38-7.4a.62.62 0 01.88-.876L8 7.822l6.94-6.96a.62.62 0 11.879.876l-7.38 7.4a.62.62 0 01-.878 0z" fill="#767676"/></svg><svg fill="none" viewBox="0 0 11 19" id="icon-facebook" xmlns="http://www.w3.org/2000/svg"><path d="M8.484 3.822H10.2V.928A22.88 22.88 0 007.7.8C5.225.8 3.53 2.307 3.53 5.076v2.549H.8v3.235h2.73V19h3.348v-8.14h2.62l.416-3.234H6.877v-2.23c.001-.934.261-1.574 1.607-1.574z" fill="currentColor"/></svg><svg fill="none" viewBox="0 0 19 19" id="icon-instagram" xmlns="http://www.w3.org/2000/svg"><path fill-rule="evenodd" clip-rule="evenodd" d="M18.577 5.88c-.042-.96-.197-1.62-.42-2.19a4.407 4.407 0 00-1.043-1.602 4.443 4.443 0 00-1.598-1.04c-.575-.223-1.231-.378-2.19-.42C12.359.582 12.052.57 9.6.57c-2.452 0-2.758.01-3.721.053-.96.042-1.62.198-2.19.42-.607.23-1.15.582-1.602 1.044a4.445 4.445 0 00-1.04 1.598c-.223.575-.378 1.23-.42 2.19C.582 6.843.57 7.15.57 9.601c0 2.451.01 2.758.053 3.721.042.96.198 1.619.42 2.19.23.607.585 1.15 1.044 1.602.451.458.998.814 1.598 1.04.575.222 1.23.378 2.19.42.963.042 1.27.053 3.721.053 2.452 0 2.759-.01 3.722-.053.959-.042 1.618-.198 2.19-.42a4.618 4.618 0 002.642-2.642c.222-.575.377-1.23.42-2.19.042-.963.052-1.27.052-3.721 0-2.452-.003-2.758-.046-3.721zm-1.626 7.371c-.038.882-.186 1.358-.31 1.676a2.995 2.995 0 01-1.714 1.714c-.318.124-.797.272-1.676.31-.952.043-1.237.053-3.647.053-2.409 0-2.698-.01-3.647-.053-.882-.038-1.358-.186-1.675-.31a2.779 2.779 0 01-1.037-.674c-.3-.292-.53-.645-.674-1.037-.123-.317-.271-.797-.31-1.675-.043-.952-.053-1.238-.053-3.647 0-2.41.01-2.698.053-3.647.039-.882.187-1.358.31-1.676.145-.391.374-.747.677-1.037.293-.3.646-.529 1.037-.673.318-.124.798-.272 1.676-.31.952-.043 1.238-.054 3.647-.054 2.412 0 2.698.011 3.647.053.882.04 1.358.187 1.675.31.392.145.748.375 1.037.674.3.293.53.646.674 1.037.124.318.272.797.31 1.676.043.952.053 1.238.053 3.647s-.01 2.691-.053 3.643zm-7.35-8.289a4.64 4.64 0 000 9.277 4.64 4.64 0 000-9.277zm0 7.647a3.01 3.01 0 110-6.018 3.01 3.01 0 010 6.018zm4.822-6.747a1.083 1.083 0 100-2.166 1.083 1.083 0 000 2.166z" fill="currentColor"/></svg><svg fill="none" viewBox="0 0 24 24" id="icon-load-more" xmlns="http://www.w3.org/2000/svg"><path fill-rule="evenodd" clip-rule="evenodd" d="M12 4.5a7.5 7.5 0 11-6.82 4.371.75.75 0 00-1.361-.626A9 9 0 1011.999 3v1.5z" fill="#9F2D22"/><path d="M12 6.699V.801a.376.376 0 00-.614-.288l-3.54 2.949a.375.375 0 000 .576l3.54 2.949A.375.375 0 0012 6.699z" fill="#9F2D22"/></svg><svg fill="none" viewBox="0 0 23 19" id="icon-twitter" xmlns="http://www.w3.org/2000/svg"><path d="M22.6 2.554a9.574 9.574 0 01-2.646.726 4.566 4.566 0 002.02-2.538 9.177 9.177 0 01-2.912 1.111 4.59 4.59 0 00-7.944 3.14c0 .364.031.714.107 1.047-3.818-.186-7.196-2.016-9.466-4.803a4.623 4.623 0 00-.628 2.321c0 1.59.819 3 2.04 3.817a4.535 4.535 0 01-2.075-.566v.05a4.613 4.613 0 003.679 4.513 4.583 4.583 0 01-1.204.15 4.06 4.06 0 01-.87-.078c.596 1.82 2.284 3.156 4.292 3.2a9.227 9.227 0 01-5.694 1.958c-.377 0-.738-.017-1.1-.063a12.928 12.928 0 007.046 2.06c8.45 0 13.07-7 13.07-13.067 0-.203-.007-.399-.017-.593A9.161 9.161 0 0022.6 2.554z" fill="currentColor"/></svg><svg fill="none" viewBox="0 0 35 21" id="icon-vk" xmlns="http://www.w3.org/2000/svg"><path d="M34.815 18.55a2.394 2.394 0 00-.12-.228c-.606-1.094-1.767-2.436-3.48-4.028l-.036-.036-.018-.018-.018-.018h-.019c-.777-.742-1.27-1.24-1.476-1.495-.377-.486-.461-.978-.255-1.476.145-.377.693-1.172 1.64-2.387.498-.644.893-1.16 1.184-1.549 2.102-2.794 3.013-4.58 2.734-5.358l-.109-.181c-.073-.11-.261-.21-.564-.301-.304-.091-.693-.106-1.167-.046l-5.248.037c-.085-.03-.206-.028-.365.009l-.237.055-.091.045-.073.055a.81.81 0 00-.2.191 1.25 1.25 0 00-.182.32 29.758 29.758 0 01-1.95 4.1c-.45.753-.862 1.406-1.24 1.958-.376.553-.692.96-.947 1.221-.255.261-.485.47-.692.629-.207.158-.365.225-.474.2-.11-.024-.212-.048-.31-.073a1.212 1.212 0 01-.41-.446 2 2 0 01-.21-.71 7.843 7.843 0 01-.063-.739c-.006-.206-.003-.498.01-.875.012-.376.017-.631.017-.765 0-.462.01-.963.027-1.503l.046-1.285c.013-.316.018-.65.018-1.002 0-.353-.021-.629-.064-.83a2.832 2.832 0 00-.19-.583.982.982 0 00-.374-.437 2.105 2.105 0 00-.61-.246c-.644-.146-1.464-.225-2.46-.237-2.26-.024-3.712.122-4.356.438a2.454 2.454 0 00-.692.546c-.22.267-.25.413-.092.437.73.11 1.245.37 1.55.784l.109.219c.085.158.17.437.255.838.085.4.14.844.164 1.33.06.887.06 1.646 0 2.278-.061.632-.118 1.124-.173 1.476a2.957 2.957 0 01-.246.856c-.11.219-.183.353-.22.401a.315.315 0 01-.09.091c-.158.06-.322.092-.492.092-.17 0-.377-.085-.62-.256a4.373 4.373 0 01-.756-.701c-.261-.298-.556-.714-.884-1.249a21.78 21.78 0 01-1.02-1.895l-.292-.528c-.182-.34-.431-.836-.747-1.485A28.631 28.631 0 017.4 2.303a1.201 1.201 0 00-.438-.583l-.09-.055c-.061-.048-.159-.1-.292-.154a1.934 1.934 0 00-.42-.119l-4.992.036c-.51 0-.857.116-1.04.347l-.072.11a.59.59 0 00-.055.29c0 .134.036.299.11.493a60.14 60.14 0 002.377 4.956c.857 1.592 1.601 2.874 2.233 3.845.631.972 1.275 1.89 1.931 2.752.656.863 1.09 1.415 1.303 1.658.213.243.38.425.501.547l.456.437c.292.292.72.641 1.285 1.048.565.407 1.19.808 1.877 1.203.686.395 1.485.716 2.396.965.911.25 1.798.35 2.66.302h2.096c.425-.037.747-.17.966-.401l.073-.092a1.21 1.21 0 00.136-.337c.043-.151.064-.319.064-.5a6.001 6.001 0 01.118-1.413c.091-.419.195-.735.31-.947.116-.213.247-.392.392-.538.146-.145.25-.234.31-.264.061-.03.11-.051.146-.064.291-.097.635-.003 1.03.283.395.285.765.638 1.111 1.057.347.42.763.89 1.249 1.412.486.522.91.91 1.275 1.166l.364.219c.244.146.56.28.949.401.388.121.728.152 1.02.091l4.665-.073c.461 0 .82-.076 1.075-.228.255-.151.407-.319.455-.5.05-.183.052-.39.01-.62a2.29 2.29 0 00-.128-.483z" fill="currentColor"/></svg><svg fill="none" viewBox="0 0 25 19" id="icon-youtube" xmlns="http://www.w3.org/2000/svg"><path d="M19.808.655H5.192A5.192 5.192 0 000 5.847v7.306a5.192 5.192 0 005.192 5.192h14.616A5.192 5.192 0 0025 13.153V5.847A5.192 5.192 0 0019.808.655zm-3.512 9.2L9.46 13.117a.274.274 0 01-.392-.248V6.144c0-.205.216-.338.398-.245l6.836 3.464c.204.103.2.395-.006.493z" fill="currentColor"/></svg></svg>